# xmcd
#
# Track frame offsets: 
#        314
#        14897
#        32115
#        50466
#        64403
#        80901
#        95994
#        110020
#        126364
#        142499
#        156539
#        174038
#        190585
#        204112
#        220092
#        236369
#        248960
#
# Disc length: 3466 seconds
#
# Revision: 1
# Processed by: cddbd v1.5.2PL0 Copyright (c) Steve Scherf et al.
# Submitted via: ExactAudioCopy v0.99pb5
#
DISCID=070d8611
DTITLE=Tracy Lawrence - Then and Now: The Hits Collection 
DYEAR=2005
DGENRE=Country
TTITLE0=Used To The Pain
TTITLE1=Paint Me A Birmingham
TTITLE2=If I Don't Make It Back
TTITLE3=If The World Had A Front Porch
TTITLE4=Sticks And Stones
TTITLE5=Is That A Tear
TTITLE6=Time Marches On
TTITLE7=I See It Now
TTITLE8=How A Cowgirl Says Goodbye
TTITLE9=Alibis
TTITLE10=Today's Lonely Fool
TTITLE11=Can't Break It To My Heart
TTITLE12=Lessons Learned
TTITLE13=Texas Tornado
TTITLE14=Stars Over Texas
TTITLE15=My Second Home
TTITLE16=If The Good Die Young
EXTD=
EXTT0=
EXTT1=
EXTT2=
EXTT3=
EXTT4=
EXTT5=
EXTT6=
EXTT7=
EXTT8=
EXTT9=
EXTT10=
EXTT11=
EXTT12=
EXTT13=
EXTT14=
EXTT15=
EXTT16=
PLAYORDER=
